<svg width="280" height="175" xmlns="http://www.w3.org/2000/svg">

 <g>
  <title>background</title>
  <rect fill="none" id="canvas_background" height="602" width="802" y="-1" x="-1"/>
 </g>
 <g>
  <title>Layer 1</title>
  <g id="svg_1">
   <path fill="#075054" id="svg_2" d="m186.76738,101.25527c0.09787,-5.31902 -0.27,-21.81132 -7.94475,-31.18328c-3.19275,-3.89422 -7.20225,-6.13109 -11.93063,-6.67369c-1.14412,-3.93482 -4.509,-6.78443 -8.48475,-6.78443l-0.12825,0l0,-6.62571c0,-7.30858 -5.41688,-13.23296 -12.09938,-13.23296l-6.17962,-0.00369l-6.183,0.00369c-6.67912,0 -12.096,5.92438 -12.096,13.23296l0,6.62202l-0.12825,0c-3.97575,0 -7.34062,2.84961 -8.48812,6.78443c-4.725,0.54261 -8.7345,2.78317 -11.92387,6.67369c-7.6815,9.37565 -8.04937,25.86057 -7.9515,31.17959c-4.1985,1.43219 -7.22925,5.35594 -7.22925,9.96994c0,0.08859 0.01013,0.17349 0.0135,0.26208l5.70038,0c-0.00338,-0.08121 -0.02025,-0.17349 -0.02025,-0.26208c0,-2.38452 2.25113,-4.3224 5.01863,-4.3224c2.77088,0 5.02538,1.93419 5.02538,4.3224c0,0.08859 -0.01688,0.17349 -0.02363,0.26208l5.70038,0c0,-0.08121 0.01687,-0.17349 0.01687,-0.26208c0,-4.1969 -2.511,-7.82166 -6.12562,-9.51592c-0.2025,-5.5368 0.47925,-19.15734 5.886,-25.75352c1.53562,-1.86775 3.34462,-3.03786 5.49112,-3.55094l0,26.50653c0,5.38177 3.98925,9.74847 8.90662,9.74847l1.75838,0l0,7.52636c-1.269,1.08152 -2.06888,2.63183 -2.06888,4.35931c0,1.72379 0.7965,3.2741 2.06888,4.363l0,13.34739l8.06962,0l0,-12.87861c1.62675,-1.07783 2.68988,-2.83853 2.68988,-4.83178s-1.06312,-3.75395 -2.68988,-4.83548l0,-7.0502l8.58263,0l8.57925,0l0,7.0502c-1.62338,1.08152 -2.68988,2.84223 -2.68988,4.83548s1.06312,3.75395 2.68988,4.83178l0,12.87861l8.073,0l0,-13.34739c1.26563,-1.0889 2.0655,-2.63921 2.0655,-4.363c0,-1.72748 -0.79987,-3.27779 -2.0655,-4.35931l0,-7.53005l1.75837,0c4.91738,0 8.90663,-4.36669 8.90663,-9.74847l0,-26.50653c2.1465,0.51308 3.95887,1.68319 5.4945,3.55094c5.41012,6.5888 6.09187,20.21303 5.88262,25.75352c-3.61462,1.69426 -6.12562,5.31902 -6.12562,9.51592c0,0.08859 0.0135,0.17349 0.02025,0.26208l5.70038,0c-0.00675,-0.08121 -0.02363,-0.17349 -0.02363,-0.26208c0,-2.38452 2.2545,-4.3224 5.02538,-4.3224c2.7675,0 5.022,1.93419 5.022,4.3224c0,0.08859 -0.0135,0.17349 -0.02025,0.26208l5.697,0c0,-0.08859 0.01013,-0.17349 0.01013,-0.26208c0,-4.61031 -3.024,-8.53406 -7.23262,-9.95886zm-56.943,-2.43988c-3.06113,0 -5.54175,-2.71303 -5.54175,-6.06095l0,-20.25363c0,-3.34792 2.48063,-6.06095 5.54175,-6.06095l10.17562,0l10.179,0c3.05775,0 5.54513,2.71303 5.54513,6.06095l0,20.25363c0,3.34423 -2.48063,6.06095 -5.54513,6.06095l-10.179,0l-10.17562,0z"/>
  </g>
  <g id="svg_3"/>
  <g id="svg_4"/>
  <g id="svg_5"/>
  <g id="svg_6"/>
  <g id="svg_7"/>
  <g id="svg_8"/>
  <g id="svg_9"/>
  <g id="svg_10"/>
  <g id="svg_11"/>
  <g id="svg_12"/>
  <g id="svg_13"/>
  <g id="svg_14"/>
  <g id="svg_15"/>
  <g id="svg_16"/>
  <g id="svg_17"/>
 </g>
</svg>